<?xml version="1.0" encoding="utf-8"?>
<!DOCTYPE svg PUBLIC "-//W3C//DTD SVG 1.1//EN" "http://www.w3.org/Graphics/SVG/1.1/DTD/svg11.dtd">
<svg version="1.1" id="Layer_1" xmlns="http://www.w3.org/2000/svg" xmlns:xlink="http://www.w3.org/1999/xlink" x="0px" y="0px"
width="594px" height="594px" viewBox="0 0 594 594" enable-background="new 0 0 594 594" xml:space="preserve">
<rect x="0" y="0" width="594" height="594" fill="rgb(224,215,231)" /><g transform="translate(36,36)"><g transform="translate(144,0) scale(0.18,0.18)"><g transform="" style="fill: rgb(0, 0, 0);">
<g>
	<path d="M100,34.375V0H34.375C24.87,0,16.764,3.353,10.059,10.059S0,24.87,0,34.375V100h100V34.375z"/>
</g>
</g></g><g transform="translate(162,0) scale(0.18,0.18)"><g transform="" style="fill: rgb(0, 0, 0);">
<rect width="100" height="100"/>
</g></g><g transform="translate(180,0) scale(0.18,0.18)"><g transform="" style="fill: rgb(0, 0, 0);">
<g>
	<path d="M100,34.375c0-9.505-3.354-17.611-10.059-24.316S75.131,0,65.625,0H0v100h100V34.375z"/>
</g>
</g></g><g transform="translate(216,0) scale(0.18,0.18)"><g transform="" style="fill: rgb(0, 0, 0);">
<g>
	<path d="M100,40.625V100H0V40.625L50,0L100,40.625z"/>
</g>
</g></g><g transform="translate(270,0) scale(0.18,0.18)"><g transform="" style="fill: rgb(0, 0, 0);">
<g>
	<path d="M100,34.375V0H34.375C24.87,0,16.764,3.353,10.059,10.059S0,24.87,0,34.375V100h100V34.375z"/>
</g>
</g></g><g transform="translate(288,0) scale(0.18,0.18)"><g transform="" style="fill: rgb(0, 0, 0);">
<rect width="100" height="100"/>
</g></g><g transform="translate(306,0) scale(0.18,0.18)"><g transform="" style="fill: rgb(0, 0, 0);">
<rect width="100" height="100"/>
</g></g><g transform="translate(324,0) scale(0.18,0.18)"><g transform="" style="fill: rgb(0, 0, 0);">
<rect width="100" height="100"/>
</g></g><g transform="translate(342,0) scale(0.18,0.18)"><g transform="" style="fill: rgb(0, 0, 0);">
<rect width="100" height="100"/>
</g></g><g transform="translate(360,0) scale(0.18,0.18)"><g transform="" style="fill: rgb(0, 0, 0);">
<g>
	<path d="M59.375,0H0v100h59.375L100,50L59.375,0z"/>
</g>
</g></g><g transform="translate(144,18) scale(0.18,0.18)"><g transform="" style="fill: rgb(0, 0, 0);">
<g>
	<path d="M100,0H0v65.625c0,9.506,3.353,17.611,10.059,24.316S24.87,100,34.375,100H100V0z"/>
</g>
</g></g><g transform="translate(162,18) scale(0.18,0.18)"><g transform="" style="fill: rgb(0, 0, 0);">
<rect width="100" height="100"/>
</g></g><g transform="translate(180,18) scale(0.18,0.18)"><g transform="" style="fill: rgb(0, 0, 0);">
<rect width="100" height="100"/>
</g></g><g transform="translate(198,18) scale(0.18,0.18)"><g transform="" style="fill: rgb(0, 0, 0);">
<rect width="100" height="100"/>
</g></g><g transform="translate(216,18) scale(0.18,0.18)"><g transform="" style="fill: rgb(0, 0, 0);">
<g>
	<path d="M100,0H0v100h65.625c9.506,0,17.611-3.354,24.316-10.059S100,75.131,100,65.625V0z"/>
</g>
</g></g><g transform="translate(252,18) scale(0.18,0.18)"><g transform="" style="fill: rgb(0, 0, 0);">
<g>
	<path d="M100,34.375V0H34.375C24.87,0,16.764,3.353,10.059,10.059S0,24.87,0,34.375V100h100V34.375z"/>
</g>
</g></g><g transform="translate(270,18) scale(0.18,0.18)"><g transform="" style="fill: rgb(0, 0, 0);">
<rect width="100" height="100"/>
</g></g><g transform="translate(306,18) scale(0.18,0.18)"><g transform="" style="fill: rgb(0, 0, 0);">
<g>
	<path d="M100,0H0v65.625c0,9.506,3.353,17.611,10.059,24.316S24.87,100,34.375,100H100V0z"/>
</g>
</g></g><g transform="translate(324,18) scale(0.18,0.18)"><g transform="" style="fill: rgb(0, 0, 0);">
<g>
	<path d="M100,0H0v100h65.625c9.506,0,17.611-3.354,24.316-10.059S100,75.131,100,65.625V0z"/>
</g>
</g></g><g transform="translate(162,36) scale(0.18,0.18)"><g transform="" style="fill: rgb(0, 0, 0);">
<rect width="100" height="100"/>
</g></g><g transform="translate(198,36) scale(0.18,0.18)"><g transform="" style="fill: rgb(0, 0, 0);">
<rect width="100" height="100"/>
</g></g><g transform="translate(234,36) scale(0.18,0.18)"><g transform="" style="fill: rgb(0, 0, 0);">
<g>
	<path d="M40.625,0H100v100H40.625L0,50L40.625,0z"/>
</g>
</g></g><g transform="translate(252,36) scale(0.18,0.18)"><g transform="" style="fill: rgb(0, 0, 0);">
<rect width="100" height="100"/>
</g></g><g transform="translate(270,36) scale(0.18,0.18)"><g transform="" style="fill: rgb(0, 0, 0);">
<g>
	<path d="M100,0H0v100h65.625c9.506,0,17.611-3.354,24.316-10.059S100,75.131,100,65.625V0z"/>
</g>
</g></g><g transform="translate(342,36) scale(0.18,0.18)"><g transform="" style="fill: rgb(0, 0, 0);">
<g>
	<path d="M100,40.625V100H0V40.625L50,0L100,40.625z"/>
</g>
</g></g><g transform="translate(144,54) scale(0.18,0.18)"><g transform="" style="fill: rgb(0, 0, 0);">
<g>
	<path d="M40.625,0H100v100H40.625L0,50L40.625,0z"/>
</g>
</g></g><g transform="translate(162,54) scale(0.18,0.18)"><g transform="" style="fill: rgb(0, 0, 0);">
<g>
	<path d="M100,0H0v100h65.625c9.506,0,17.611-3.354,24.316-10.059S100,75.131,100,65.625V0z"/>
</g>
</g></g><g transform="translate(198,54) scale(0.18,0.18)"><g transform="" style="fill: rgb(0, 0, 0);">
<g>
	<path d="M100,59.375V0H0v59.375L50,100L100,59.375z"/>
</g>
</g></g><g transform="translate(288,54) scale(0.18,0.18)"><g transform="" style="fill: rgb(0, 0, 0);">
<g>
	<path d="M40.625,0H100v100H40.625L0,50L40.625,0z"/>
</g>
</g></g><g transform="translate(306,54) scale(0.18,0.18)"><g transform="" style="fill: rgb(0, 0, 0);">
<rect width="100" height="100"/>
</g></g><g transform="translate(324,54) scale(0.18,0.18)"><g transform="" style="fill: rgb(0, 0, 0);">
<rect width="100" height="100"/>
</g></g><g transform="translate(342,54) scale(0.18,0.18)"><g transform="" style="fill: rgb(0, 0, 0);">
<rect width="100" height="100"/>
</g></g><g transform="translate(216,72) scale(0.18,0.18)"><g transform="" style="fill: rgb(0, 0, 0);">
<g>
	<path d="M100,34.375V0H34.375C24.87,0,16.764,3.353,10.059,10.059S0,24.87,0,34.375V100h100V34.375z"/>
</g>
</g></g><g transform="translate(234,72) scale(0.18,0.18)"><g transform="" style="fill: rgb(0, 0, 0);">
<g>
	<path d="M59.375,0H0v100h59.375L100,50L59.375,0z"/>
</g>
</g></g><g transform="translate(342,72) scale(0.18,0.18)"><g transform="" style="fill: rgb(0, 0, 0);">
<rect width="100" height="100"/>
</g></g><g transform="translate(216,90) scale(0.18,0.18)"><g transform="" style="fill: rgb(0, 0, 0);">
<rect width="100" height="100"/>
</g></g><g transform="translate(252,90) scale(0.18,0.18)"><g transform="" style="fill: rgb(0, 0, 0);">
<g>
	<path d="M100,40.625V100H0V40.625L50,0L100,40.625z"/>
</g>
</g></g><g transform="translate(306,90) scale(0.18,0.18)"><g transform="" style="fill: rgb(0, 0, 0);">
<g>
	<path d="M40.625,0H100v100H40.625L0,50L40.625,0z"/>
</g>
</g></g><g transform="translate(324,90) scale(0.18,0.18)"><g transform="" style="fill: rgb(0, 0, 0);">
<rect width="100" height="100"/>
</g></g><g transform="translate(342,90) scale(0.18,0.18)"><g transform="" style="fill: rgb(0, 0, 0);">
<rect width="100" height="100"/>
</g></g><g transform="translate(360,90) scale(0.18,0.18)"><g transform="" style="fill: rgb(0, 0, 0);">
<g>
	<path d="M100,34.375c0-9.505-3.354-17.611-10.059-24.316S75.131,0,65.625,0H0v100h100V34.375z"/>
</g>
</g></g><g transform="translate(144,108) scale(0.18,0.18)"><g transform="" style="fill: rgb(0, 0, 0);">
<g>
	<path d="M100,40.625V100H0V40.625L50,0L100,40.625z"/>
</g>
</g></g><g transform="translate(180,108) scale(0.18,0.18)"><g transform="" style="fill: rgb(0, 0, 0);">
<g>
	<path d="M100,65.625c0,9.506-3.354,17.611-10.059,24.316S75.131,100,65.625,100h-31.25c-9.505,0-17.611-3.354-24.316-10.059
		S0,75.131,0,65.625v-31.25c0-9.505,3.353-17.611,10.059-24.316S24.87,0,34.375,0h31.25c9.506,0,17.611,3.353,24.316,10.059
		S100,24.87,100,34.375V65.625z"/>
</g>
</g></g><g transform="translate(216,108) scale(0.18,0.18)"><g transform="" style="fill: rgb(0, 0, 0);">
<rect width="100" height="100"/>
</g></g><g transform="translate(252,108) scale(0.18,0.18)"><g transform="" style="fill: rgb(0, 0, 0);">
<rect width="100" height="100"/>
</g></g><g transform="translate(288,108) scale(0.18,0.18)"><g transform="" style="fill: rgb(0, 0, 0);">
<g>
	<path d="M100,65.625c0,9.506-3.354,17.611-10.059,24.316S75.131,100,65.625,100h-31.25c-9.505,0-17.611-3.354-24.316-10.059
		S0,75.131,0,65.625v-31.25c0-9.505,3.353-17.611,10.059-24.316S24.87,0,34.375,0h31.25c9.506,0,17.611,3.353,24.316,10.059
		S100,24.87,100,34.375V65.625z"/>
</g>
</g></g><g transform="translate(324,108) scale(0.18,0.18)"><g transform="" style="fill: rgb(0, 0, 0);">
<g>
	<path d="M100,59.375V0H0v59.375L50,100L100,59.375z"/>
</g>
</g></g><g transform="translate(360,108) scale(0.18,0.18)"><g transform="" style="fill: rgb(0, 0, 0);">
<rect width="100" height="100"/>
</g></g><g transform="translate(144,126) scale(0.18,0.18)"><g transform="" style="fill: rgb(0, 0, 0);">
<g>
	<path d="M100,0H0v65.625c0,9.506,3.353,17.611,10.059,24.316S24.87,100,34.375,100H100V0z"/>
</g>
</g></g><g transform="translate(162,126) scale(0.18,0.18)"><g transform="" style="fill: rgb(0, 0, 0);">
<g>
	<path d="M59.375,0H0v100h59.375L100,50L59.375,0z"/>
</g>
</g></g><g transform="translate(216,126) scale(0.18,0.18)"><g transform="" style="fill: rgb(0, 0, 0);">
<g>
	<path d="M100,0H0v65.625c0,9.506,3.353,17.611,10.059,24.316S24.87,100,34.375,100H100V0z"/>
</g>
</g></g><g transform="translate(234,126) scale(0.18,0.18)"><g transform="" style="fill: rgb(0, 0, 0);">
<rect width="100" height="100"/>
</g></g><g transform="translate(252,126) scale(0.18,0.18)"><g transform="" style="fill: rgb(0, 0, 0);">
<rect width="100" height="100"/>
</g></g><g transform="translate(306,126) scale(0.18,0.18)"><g transform="" style="fill: rgb(0, 0, 0);">
<g>
	<path d="M100,40.625V100H0V40.625L50,0L100,40.625z"/>
</g>
</g></g><g transform="translate(360,126) scale(0.18,0.18)"><g transform="" style="fill: rgb(0, 0, 0);">
<g>
	<path d="M100,59.375V0H0v59.375L50,100L100,59.375z"/>
</g>
</g></g><g transform="translate(0,144) scale(0.18,0.18)"><g transform="" style="fill: rgb(0, 0, 0);">
<g>
	<path d="M100,40.625V100H0V40.625L50,0L100,40.625z"/>
</g>
</g></g><g transform="translate(36,144) scale(0.18,0.18)"><g transform="" style="fill: rgb(0, 0, 0);">
<g>
	<path d="M40.625,0H100v100H40.625L0,50L40.625,0z"/>
</g>
</g></g><g transform="translate(54,144) scale(0.18,0.18)"><g transform="" style="fill: rgb(0, 0, 0);">
<g>
	<path d="M59.375,0H0v100h59.375L100,50L59.375,0z"/>
</g>
</g></g><g transform="translate(90,144) scale(0.18,0.18)"><g transform="" style="fill: rgb(0, 0, 0);">
<g>
	<path d="M40.625,0H100v100H40.625L0,50L40.625,0z"/>
</g>
</g></g><g transform="translate(108,144) scale(0.18,0.18)"><g transform="" style="fill: rgb(0, 0, 0);">
<rect width="100" height="100"/>
</g></g><g transform="translate(126,144) scale(0.18,0.18)"><g transform="" style="fill: rgb(0, 0, 0);">
<g>
	<path d="M59.375,0H0v100h59.375L100,50L59.375,0z"/>
</g>
</g></g><g transform="translate(180,144) scale(0.18,0.18)"><g transform="" style="fill: rgb(0, 0, 0);">
<g>
	<path d="M100,65.625c0,9.506-3.354,17.611-10.059,24.316S75.131,100,65.625,100h-31.25c-9.505,0-17.611-3.354-24.316-10.059
		S0,75.131,0,65.625v-31.25c0-9.505,3.353-17.611,10.059-24.316S24.87,0,34.375,0h31.25c9.506,0,17.611,3.353,24.316,10.059
		S100,24.87,100,34.375V65.625z"/>
</g>
</g></g><g transform="translate(234,144) scale(0.18,0.18)"><g transform="" style="fill: rgb(0, 0, 0);">
<g>
	<path d="M100,0H0v65.625c0,9.506,3.353,17.611,10.059,24.316S24.87,100,34.375,100H100V0z"/>
</g>
</g></g><g transform="translate(252,144) scale(0.18,0.18)"><g transform="" style="fill: rgb(0, 0, 0);">
<g>
	<path d="M100,0H0v100h65.625c9.506,0,17.611-3.354,24.316-10.059S100,75.131,100,65.625V0z"/>
</g>
</g></g><g transform="translate(288,144) scale(0.18,0.18)"><g transform="" style="fill: rgb(0, 0, 0);">
<g>
	<path d="M100,34.375V0H34.375C24.87,0,16.764,3.353,10.059,10.059S0,24.87,0,34.375V100h100V34.375z"/>
</g>
</g></g><g transform="translate(306,144) scale(0.18,0.18)"><g transform="" style="fill: rgb(0, 0, 0);">
<rect width="100" height="100"/>
</g></g><g transform="translate(324,144) scale(0.18,0.18)"><g transform="" style="fill: rgb(0, 0, 0);">
<rect width="100" height="100"/>
</g></g><g transform="translate(342,144) scale(0.18,0.18)"><g transform="" style="fill: rgb(0, 0, 0);">
<g>
	<path d="M100,34.375c0-9.505-3.354-17.611-10.059-24.316S75.131,0,65.625,0H0v100h100V34.375z"/>
</g>
</g></g><g transform="translate(396,144) scale(0.18,0.18)"><g transform="" style="fill: rgb(0, 0, 0);">
<g>
	<path d="M100,40.625V100H0V40.625L50,0L100,40.625z"/>
</g>
</g></g><g transform="translate(450,144) scale(0.18,0.18)"><g transform="" style="fill: rgb(0, 0, 0);">
<g>
	<path d="M100,40.625V100H0V40.625L50,0L100,40.625z"/>
</g>
</g></g><g transform="translate(486,144) scale(0.18,0.18)"><g transform="" style="fill: rgb(0, 0, 0);">
<g>
	<path d="M100,34.375V0H34.375C24.87,0,16.764,3.353,10.059,10.059S0,24.87,0,34.375V100h100V34.375z"/>
</g>
</g></g><g transform="translate(504,144) scale(0.18,0.18)"><g transform="" style="fill: rgb(0, 0, 0);">
<g>
	<path d="M100,34.375c0-9.505-3.354-17.611-10.059-24.316S75.131,0,65.625,0H0v100h100V34.375z"/>
</g>
</g></g><g transform="translate(0,162) scale(0.18,0.18)"><g transform="" style="fill: rgb(0, 0, 0);">
<rect width="100" height="100"/>
</g></g><g transform="translate(18,162) scale(0.18,0.18)"><g transform="" style="fill: rgb(0, 0, 0);">
<g>
	<path d="M59.375,0H0v100h59.375L100,50L59.375,0z"/>
</g>
</g></g><g transform="translate(72,162) scale(0.18,0.18)"><g transform="" style="fill: rgb(0, 0, 0);">
<g>
	<path d="M100,65.625c0,9.506-3.354,17.611-10.059,24.316S75.131,100,65.625,100h-31.25c-9.505,0-17.611-3.354-24.316-10.059
		S0,75.131,0,65.625v-31.25c0-9.505,3.353-17.611,10.059-24.316S24.87,0,34.375,0h31.25c9.506,0,17.611,3.353,24.316,10.059
		S100,24.87,100,34.375V65.625z"/>
</g>
</g></g><g transform="translate(144,162) scale(0.18,0.18)"><g transform="" style="fill: rgb(0, 0, 0);">
<g>
	<path d="M40.625,0H100v100H40.625L0,50L40.625,0z"/>
</g>
</g></g><g transform="translate(162,162) scale(0.18,0.18)"><g transform="" style="fill: rgb(0, 0, 0);">
<g>
	<path d="M100,34.375c0-9.505-3.354-17.611-10.059-24.316S75.131,0,65.625,0H0v100h100V34.375z"/>
</g>
</g></g><g transform="translate(198,162) scale(0.18,0.18)"><g transform="" style="fill: rgb(0, 0, 0);">
<g>
	<path d="M100,34.375V0H34.375C24.87,0,16.764,3.353,10.059,10.059S0,24.87,0,34.375V100h100V34.375z"/>
</g>
</g></g><g transform="translate(216,162) scale(0.18,0.18)"><g transform="" style="fill: rgb(0, 0, 0);">
<g>
	<path d="M100,34.375c0-9.505-3.354-17.611-10.059-24.316S75.131,0,65.625,0H0v100h100V34.375z"/>
</g>
</g></g><g transform="translate(270,162) scale(0.18,0.18)"><g transform="" style="fill: rgb(0, 0, 0);">
<g>
	<path d="M100,34.375V0H34.375C24.87,0,16.764,3.353,10.059,10.059S0,24.87,0,34.375V100h100V34.375z"/>
</g>
</g></g><g transform="translate(288,162) scale(0.18,0.18)"><g transform="" style="fill: rgb(0, 0, 0);">
<g>
	<path d="M100,0H0v100h65.625c9.506,0,17.611-3.354,24.316-10.059S100,75.131,100,65.625V0z"/>
</g>
</g></g><g transform="translate(324,162) scale(0.18,0.18)"><g transform="" style="fill: rgb(0, 0, 0);">
<g>
	<path d="M100,0H0v65.625c0,9.506,3.353,17.611,10.059,24.316S24.87,100,34.375,100H100V0z"/>
</g>
</g></g><g transform="translate(342,162) scale(0.18,0.18)"><g transform="" style="fill: rgb(0, 0, 0);">
<rect width="100" height="100"/>
</g></g><g transform="translate(360,162) scale(0.18,0.18)"><g transform="" style="fill: rgb(0, 0, 0);">
<rect width="100" height="100"/>
</g></g><g transform="translate(378,162) scale(0.18,0.18)"><g transform="" style="fill: rgb(0, 0, 0);">
<rect width="100" height="100"/>
</g></g><g transform="translate(396,162) scale(0.18,0.18)"><g transform="" style="fill: rgb(0, 0, 0);">
<rect width="100" height="100"/>
</g></g><g transform="translate(414,162) scale(0.18,0.18)"><g transform="" style="fill: rgb(0, 0, 0);">
<rect width="100" height="100"/>
</g></g><g transform="translate(432,162) scale(0.18,0.18)"><g transform="" style="fill: rgb(0, 0, 0);">
<rect width="100" height="100"/>
</g></g><g transform="translate(450,162) scale(0.18,0.18)"><g transform="" style="fill: rgb(0, 0, 0);">
<rect width="100" height="100"/>
</g></g><g transform="translate(468,162) scale(0.18,0.18)"><g transform="" style="fill: rgb(0, 0, 0);">
<rect width="100" height="100"/>
</g></g><g transform="translate(486,162) scale(0.18,0.18)"><g transform="" style="fill: rgb(0, 0, 0);">
<rect width="100" height="100"/>
</g></g><g transform="translate(504,162) scale(0.18,0.18)"><g transform="" style="fill: rgb(0, 0, 0);">
<g>
	<path d="M100,0H0v100h65.625c9.506,0,17.611-3.354,24.316-10.059S100,75.131,100,65.625V0z"/>
</g>
</g></g><g transform="translate(0,180) scale(0.18,0.18)"><g transform="" style="fill: rgb(0, 0, 0);">
<g>
	<path d="M100,59.375V0H0v59.375L50,100L100,59.375z"/>
</g>
</g></g><g transform="translate(36,180) scale(0.18,0.18)"><g transform="" style="fill: rgb(0, 0, 0);">
<g>
	<path d="M100,40.625V100H0V40.625L50,0L100,40.625z"/>
</g>
</g></g><g transform="translate(108,180) scale(0.18,0.18)"><g transform="" style="fill: rgb(0, 0, 0);">
<g>
	<path d="M40.625,0H100v100H40.625L0,50L40.625,0z"/>
</g>
</g></g><g transform="translate(126,180) scale(0.18,0.18)"><g transform="" style="fill: rgb(0, 0, 0);">
<g>
	<path d="M59.375,0H0v100h59.375L100,50L59.375,0z"/>
</g>
</g></g><g transform="translate(162,180) scale(0.18,0.18)"><g transform="" style="fill: rgb(0, 0, 0);">
<rect width="100" height="100"/>
</g></g><g transform="translate(198,180) scale(0.18,0.18)"><g transform="" style="fill: rgb(0, 0, 0);">
<g>
	<path d="M100,0H0v65.625c0,9.506,3.353,17.611,10.059,24.316S24.87,100,34.375,100H100V0z"/>
</g>
</g></g><g transform="translate(216,180) scale(0.18,0.18)"><g transform="" style="fill: rgb(0, 0, 0);">
<rect width="100" height="100"/>
</g></g><g transform="translate(252,180) scale(0.18,0.18)"><g transform="" style="fill: rgb(0, 0, 0);">
<g>
	<path d="M100,34.375V0H34.375C24.87,0,16.764,3.353,10.059,10.059S0,24.87,0,34.375V100h100V34.375z"/>
</g>
</g></g><g transform="translate(270,180) scale(0.18,0.18)"><g transform="" style="fill: rgb(0, 0, 0);">
<rect width="100" height="100"/>
</g></g><g transform="translate(414,180) scale(0.18,0.18)"><g transform="" style="fill: rgb(0, 0, 0);">
<g>
	<path d="M100,0H0v65.625c0,9.506,3.353,17.611,10.059,24.316S24.87,100,34.375,100H100V0z"/>
</g>
</g></g><g transform="translate(432,180) scale(0.18,0.18)"><g transform="" style="fill: rgb(0, 0, 0);">
<g>
	<path d="M100,0H0v100h65.625c9.506,0,17.611-3.354,24.316-10.059S100,75.131,100,65.625V0z"/>
</g>
</g></g><g transform="translate(468,180) scale(0.18,0.18)"><g transform="" style="fill: rgb(0, 0, 0);">
<g>
	<path d="M100,0H0v65.625c0,9.506,3.353,17.611,10.059,24.316S24.87,100,34.375,100H100V0z"/>
</g>
</g></g><g transform="translate(486,180) scale(0.18,0.18)"><g transform="" style="fill: rgb(0, 0, 0);">
<rect width="100" height="100"/>
</g></g><g transform="translate(18,198) scale(0.18,0.18)"><g transform="" style="fill: rgb(0, 0, 0);">
<g>
	<path d="M40.625,0H100v100H40.625L0,50L40.625,0z"/>
</g>
</g></g><g transform="translate(36,198) scale(0.18,0.18)"><g transform="" style="fill: rgb(0, 0, 0);">
<rect width="100" height="100"/>
</g></g><g transform="translate(54,198) scale(0.18,0.18)"><g transform="" style="fill: rgb(0, 0, 0);">
<g>
	<path d="M59.375,0H0v100h59.375L100,50L59.375,0z"/>
</g>
</g></g><g transform="translate(162,198) scale(0.18,0.18)"><g transform="" style="fill: rgb(0, 0, 0);">
<g>
	<path d="M100,0H0v65.625c0,9.506,3.353,17.611,10.059,24.316S24.87,100,34.375,100H100V0z"/>
</g>
</g></g><g transform="translate(180,198) scale(0.18,0.18)"><g transform="" style="fill: rgb(0, 0, 0);">
<g>
	<path d="M100,34.375c0-9.505-3.354-17.611-10.059-24.316S75.131,0,65.625,0H0v100h100V34.375z"/>
</g>
</g></g><g transform="translate(216,198) scale(0.18,0.18)"><g transform="" style="fill: rgb(0, 0, 0);">
<g>
	<path d="M100,0H0v65.625c0,9.506,3.353,17.611,10.059,24.316S24.87,100,34.375,100H100V0z"/>
</g>
</g></g><g transform="translate(234,198) scale(0.18,0.18)"><g transform="" style="fill: rgb(0, 0, 0);">
<rect width="100" height="100"/>
</g></g><g transform="translate(252,198) scale(0.18,0.18)"><g transform="" style="fill: rgb(0, 0, 0);">
<rect width="100" height="100"/>
</g></g><g transform="translate(270,198) scale(0.18,0.18)"><g transform="" style="fill: rgb(0, 0, 0);">
<g>
	<path d="M100,0H0v100h65.625c9.506,0,17.611-3.354,24.316-10.059S100,75.131,100,65.625V0z"/>
</g>
</g></g><g transform="translate(324,198) scale(0.18,0.18)"><g transform="" style="fill: rgb(0, 0, 0);">
<g>
	<path d="M40.625,0H100v100H40.625L0,50L40.625,0z"/>
</g>
</g></g><g transform="translate(342,198) scale(0.18,0.18)"><g transform="" style="fill: rgb(0, 0, 0);">
<rect width="100" height="100"/>
</g></g><g transform="translate(360,198) scale(0.18,0.18)"><g transform="" style="fill: rgb(0, 0, 0);">
<rect width="100" height="100"/>
</g></g><g transform="translate(378,198) scale(0.18,0.18)"><g transform="" style="fill: rgb(0, 0, 0);">
<rect width="100" height="100"/>
</g></g><g transform="translate(396,198) scale(0.18,0.18)"><g transform="" style="fill: rgb(0, 0, 0);">
<g>
	<path d="M59.375,0H0v100h59.375L100,50L59.375,0z"/>
</g>
</g></g><g transform="translate(486,198) scale(0.18,0.18)"><g transform="" style="fill: rgb(0, 0, 0);">
<rect width="100" height="100"/>
</g></g><g transform="translate(504,198) scale(0.18,0.18)"><g transform="" style="fill: rgb(0, 0, 0);">
<g>
	<path d="M100,34.375c0-9.505-3.354-17.611-10.059-24.316S75.131,0,65.625,0H0v100h100V34.375z"/>
</g>
</g></g><g transform="translate(0,216) scale(0.18,0.18)"><g transform="" style="fill: rgb(0, 0, 0);">
<g>
	<path d="M100,40.625V100H0V40.625L50,0L100,40.625z"/>
</g>
</g></g><g transform="translate(36,216) scale(0.18,0.18)"><g transform="" style="fill: rgb(0, 0, 0);">
<rect width="100" height="100"/>
</g></g><g transform="translate(108,216) scale(0.18,0.18)"><g transform="" style="fill: rgb(0, 0, 0);">
<g>
	<path d="M40.625,0H100v100H40.625L0,50L40.625,0z"/>
</g>
</g></g><g transform="translate(126,216) scale(0.18,0.18)"><g transform="" style="fill: rgb(0, 0, 0);">
<rect width="100" height="100"/>
</g></g><g transform="translate(144,216) scale(0.18,0.18)"><g transform="" style="fill: rgb(0, 0, 0);">
<g>
	<path d="M100,34.375c0-9.505-3.354-17.611-10.059-24.316S75.131,0,65.625,0H0v100h100V34.375z"/>
</g>
</g></g><g transform="translate(180,216) scale(0.18,0.18)"><g transform="" style="fill: rgb(0, 0, 0);">
<rect width="100" height="100"/>
</g></g><g transform="translate(288,216) scale(0.18,0.18)"><g transform="" style="fill: rgb(0, 0, 0);">
<g>
	<path d="M40.625,0H100v100H40.625L0,50L40.625,0z"/>
</g>
</g></g><g transform="translate(306,216) scale(0.18,0.18)"><g transform="" style="fill: rgb(0, 0, 0);">
<g>
	<path d="M59.375,0H0v100h59.375L100,50L59.375,0z"/>
</g>
</g></g><g transform="translate(342,216) scale(0.18,0.18)"><g transform="" style="fill: rgb(0, 0, 0);">
<rect width="100" height="100"/>
</g></g><g transform="translate(378,216) scale(0.18,0.18)"><g transform="" style="fill: rgb(0, 0, 0);">
<g>
	<path d="M100,59.375V0H0v59.375L50,100L100,59.375z"/>
</g>
</g></g><g transform="translate(414,216) scale(0.18,0.18)"><g transform="" style="fill: rgb(0, 0, 0);">
<g>
	<path d="M100,65.625c0,9.506-3.354,17.611-10.059,24.316S75.131,100,65.625,100h-31.25c-9.505,0-17.611-3.354-24.316-10.059
		S0,75.131,0,65.625v-31.25c0-9.505,3.353-17.611,10.059-24.316S24.87,0,34.375,0h31.25c9.506,0,17.611,3.353,24.316,10.059
		S100,24.87,100,34.375V65.625z"/>
</g>
</g></g><g transform="translate(450,216) scale(0.18,0.18)"><g transform="" style="fill: rgb(0, 0, 0);">
<g>
	<path d="M100,34.375V0H34.375C24.87,0,16.764,3.353,10.059,10.059S0,24.87,0,34.375V100h100V34.375z"/>
</g>
</g></g><g transform="translate(468,216) scale(0.18,0.18)"><g transform="" style="fill: rgb(0, 0, 0);">
<rect width="100" height="100"/>
</g></g><g transform="translate(486,216) scale(0.18,0.18)"><g transform="" style="fill: rgb(0, 0, 0);">
<rect width="100" height="100"/>
</g></g><g transform="translate(504,216) scale(0.18,0.18)"><g transform="" style="fill: rgb(0, 0, 0);">
<rect width="100" height="100"/>
</g></g><g transform="translate(0,234) scale(0.18,0.18)"><g transform="" style="fill: rgb(0, 0, 0);">
<rect width="100" height="100"/>
</g></g><g transform="translate(18,234) scale(0.18,0.18)"><g transform="" style="fill: rgb(0, 0, 0);">
<rect width="100" height="100"/>
</g></g><g transform="translate(36,234) scale(0.18,0.18)"><g transform="" style="fill: rgb(0, 0, 0);">
<rect width="100" height="100"/>
</g></g><g transform="translate(126,234) scale(0.18,0.18)"><g transform="" style="fill: rgb(0, 0, 0);">
<g>
	<path d="M100,0H0v65.625c0,9.506,3.353,17.611,10.059,24.316S24.87,100,34.375,100H100V0z"/>
</g>
</g></g><g transform="translate(144,234) scale(0.18,0.18)"><g transform="" style="fill: rgb(0, 0, 0);">
<rect width="100" height="100"/>
</g></g><g transform="translate(162,234) scale(0.18,0.18)"><g transform="" style="fill: rgb(0, 0, 0);">
<rect width="100" height="100"/>
</g></g><g transform="translate(180,234) scale(0.18,0.18)"><g transform="" style="fill: rgb(0, 0, 0);">
<rect width="100" height="100"/>
</g></g><g transform="translate(198,234) scale(0.18,0.18)"><g transform="" style="fill: rgb(0, 0, 0);">
<rect width="100" height="100"/>
</g></g><g transform="translate(216,234) scale(0.18,0.18)"><g transform="" style="fill: rgb(0, 0, 0);">
<rect width="100" height="100"/>
</g></g><g transform="translate(234,234) scale(0.18,0.18)"><g transform="" style="fill: rgb(0, 0, 0);">
<g>
	<path d="M59.375,0H0v100h59.375L100,50L59.375,0z"/>
</g>
</g></g><g transform="translate(342,234) scale(0.18,0.18)"><g transform="" style="fill: rgb(0, 0, 0);">
<rect width="100" height="100"/>
</g></g><g transform="translate(396,234) scale(0.18,0.18)"><g transform="" style="fill: rgb(0, 0, 0);">
<g>
	<path d="M100,65.625c0,9.506-3.354,17.611-10.059,24.316S75.131,100,65.625,100h-31.25c-9.505,0-17.611-3.354-24.316-10.059
		S0,75.131,0,65.625v-31.25c0-9.505,3.353-17.611,10.059-24.316S24.87,0,34.375,0h31.25c9.506,0,17.611,3.353,24.316,10.059
		S100,24.87,100,34.375V65.625z"/>
</g>
</g></g><g transform="translate(450,234) scale(0.18,0.18)"><g transform="" style="fill: rgb(0, 0, 0);">
<rect width="100" height="100"/>
</g></g><g transform="translate(468,234) scale(0.18,0.18)"><g transform="" style="fill: rgb(0, 0, 0);">
<g>
	<path d="M100,0H0v100h65.625c9.506,0,17.611-3.354,24.316-10.059S100,75.131,100,65.625V0z"/>
</g>
</g></g><g transform="translate(504,234) scale(0.18,0.18)"><g transform="" style="fill: rgb(0, 0, 0);">
<rect width="100" height="100"/>
</g></g><g transform="translate(0,252) scale(0.18,0.18)"><g transform="" style="fill: rgb(0, 0, 0);">
<rect width="100" height="100"/>
</g></g><g transform="translate(18,252) scale(0.18,0.18)"><g transform="" style="fill: rgb(0, 0, 0);">
<rect width="100" height="100"/>
</g></g><g transform="translate(36,252) scale(0.18,0.18)"><g transform="" style="fill: rgb(0, 0, 0);">
<rect width="100" height="100"/>
</g></g><g transform="translate(54,252) scale(0.18,0.18)"><g transform="" style="fill: rgb(0, 0, 0);">
<rect width="100" height="100"/>
</g></g><g transform="translate(72,252) scale(0.18,0.18)"><g transform="" style="fill: rgb(0, 0, 0);">
<rect width="100" height="100"/>
</g></g><g transform="translate(90,252) scale(0.18,0.18)"><g transform="" style="fill: rgb(0, 0, 0);">
<rect width="100" height="100"/>
</g></g><g transform="translate(108,252) scale(0.18,0.18)"><g transform="" style="fill: rgb(0, 0, 0);">
<g>
	<path d="M59.375,0H0v100h59.375L100,50L59.375,0z"/>
</g>
</g></g><g transform="translate(216,252) scale(0.18,0.18)"><g transform="" style="fill: rgb(0, 0, 0);">
<rect width="100" height="100"/>
</g></g><g transform="translate(252,252) scale(0.18,0.18)"><g transform="" style="fill: rgb(0, 0, 0);">
<g>
	<path d="M100,65.625c0,9.506-3.354,17.611-10.059,24.316S75.131,100,65.625,100h-31.25c-9.505,0-17.611-3.354-24.316-10.059
		S0,75.131,0,65.625v-31.25c0-9.505,3.353-17.611,10.059-24.316S24.87,0,34.375,0h31.25c9.506,0,17.611,3.353,24.316,10.059
		S100,24.87,100,34.375V65.625z"/>
</g>
</g></g><g transform="translate(306,252) scale(0.18,0.18)"><g transform="" style="fill: rgb(0, 0, 0);">
<g>
	<path d="M40.625,0H100v100H40.625L0,50L40.625,0z"/>
</g>
</g></g><g transform="translate(324,252) scale(0.18,0.18)"><g transform="" style="fill: rgb(0, 0, 0);">
<rect width="100" height="100"/>
</g></g><g transform="translate(342,252) scale(0.18,0.18)"><g transform="" style="fill: rgb(0, 0, 0);">
<rect width="100" height="100"/>
</g></g><g transform="translate(360,252) scale(0.18,0.18)"><g transform="" style="fill: rgb(0, 0, 0);">
<rect width="100" height="100"/>
</g></g><g transform="translate(378,252) scale(0.18,0.18)"><g transform="" style="fill: rgb(0, 0, 0);">
<g>
	<path d="M100,34.375c0-9.505-3.354-17.611-10.059-24.316S75.131,0,65.625,0H0v100h100V34.375z"/>
</g>
</g></g><g transform="translate(414,252) scale(0.18,0.18)"><g transform="" style="fill: rgb(0, 0, 0);">
<g>
	<path d="M100,40.625V100H0V40.625L50,0L100,40.625z"/>
</g>
</g></g><g transform="translate(450,252) scale(0.18,0.18)"><g transform="" style="fill: rgb(0, 0, 0);">
<rect width="100" height="100"/>
</g></g><g transform="translate(486,252) scale(0.18,0.18)"><g transform="" style="fill: rgb(0, 0, 0);">
<g>
	<path d="M40.625,0H100v100H40.625L0,50L40.625,0z"/>
</g>
</g></g><g transform="translate(504,252) scale(0.18,0.18)"><g transform="" style="fill: rgb(0, 0, 0);">
<g>
	<path d="M100,0H0v100h65.625c9.506,0,17.611-3.354,24.316-10.059S100,75.131,100,65.625V0z"/>
</g>
</g></g><g transform="translate(0,270) scale(0.18,0.18)"><g transform="" style="fill: rgb(0, 0, 0);">
<rect width="100" height="100"/>
</g></g><g transform="translate(54,270) scale(0.18,0.18)"><g transform="" style="fill: rgb(0, 0, 0);">
<g>
	<path d="M100,59.375V0H0v59.375L50,100L100,59.375z"/>
</g>
</g></g><g transform="translate(126,270) scale(0.18,0.18)"><g transform="" style="fill: rgb(0, 0, 0);">
<g>
	<path d="M100,34.375V0H34.375C24.87,0,16.764,3.353,10.059,10.059S0,24.87,0,34.375V100h100V34.375z"/>
</g>
</g></g><g transform="translate(144,270) scale(0.18,0.18)"><g transform="" style="fill: rgb(0, 0, 0);">
<rect width="100" height="100"/>
</g></g><g transform="translate(162,270) scale(0.18,0.18)"><g transform="" style="fill: rgb(0, 0, 0);">
<g>
	<path d="M100,34.375c0-9.505-3.354-17.611-10.059-24.316S75.131,0,65.625,0H0v100h100V34.375z"/>
</g>
</g></g><g transform="translate(216,270) scale(0.18,0.18)"><g transform="" style="fill: rgb(0, 0, 0);">
<g>
	<path d="M100,0H0v65.625c0,9.506,3.353,17.611,10.059,24.316S24.87,100,34.375,100H100V0z"/>
</g>
</g></g><g transform="translate(234,270) scale(0.18,0.18)"><g transform="" style="fill: rgb(0, 0, 0);">
<g>
	<path d="M59.375,0H0v100h59.375L100,50L59.375,0z"/>
</g>
</g></g><g transform="translate(270,270) scale(0.18,0.18)"><g transform="" style="fill: rgb(0, 0, 0);">
<g>
	<path d="M100,65.625c0,9.506-3.354,17.611-10.059,24.316S75.131,100,65.625,100h-31.25c-9.505,0-17.611-3.354-24.316-10.059
		S0,75.131,0,65.625v-31.25c0-9.505,3.353-17.611,10.059-24.316S24.87,0,34.375,0h31.25c9.506,0,17.611,3.353,24.316,10.059
		S100,24.87,100,34.375V65.625z"/>
</g>
</g></g><g transform="translate(342,270) scale(0.18,0.18)"><g transform="" style="fill: rgb(0, 0, 0);">
<g>
	<path d="M100,0H0v65.625c0,9.506,3.353,17.611,10.059,24.316S24.87,100,34.375,100H100V0z"/>
</g>
</g></g><g transform="translate(360,270) scale(0.18,0.18)"><g transform="" style="fill: rgb(0, 0, 0);">
<rect width="100" height="100"/>
</g></g><g transform="translate(378,270) scale(0.18,0.18)"><g transform="" style="fill: rgb(0, 0, 0);">
<rect width="100" height="100"/>
</g></g><g transform="translate(396,270) scale(0.18,0.18)"><g transform="" style="fill: rgb(0, 0, 0);">
<rect width="100" height="100"/>
</g></g><g transform="translate(414,270) scale(0.18,0.18)"><g transform="" style="fill: rgb(0, 0, 0);">
<rect width="100" height="100"/>
</g></g><g transform="translate(432,270) scale(0.18,0.18)"><g transform="" style="fill: rgb(0, 0, 0);">
<rect width="100" height="100"/>
</g></g><g transform="translate(450,270) scale(0.18,0.18)"><g transform="" style="fill: rgb(0, 0, 0);">
<g>
	<path d="M100,0H0v100h65.625c9.506,0,17.611-3.354,24.316-10.059S100,75.131,100,65.625V0z"/>
</g>
</g></g><g transform="translate(0,288) scale(0.18,0.18)"><g transform="" style="fill: rgb(0, 0, 0);">
<g>
	<path d="M100,0H0v65.625c0,9.506,3.353,17.611,10.059,24.316S24.87,100,34.375,100H100V0z"/>
</g>
</g></g><g transform="translate(18,288) scale(0.18,0.18)"><g transform="" style="fill: rgb(0, 0, 0);">
<rect width="100" height="100"/>
</g></g><g transform="translate(36,288) scale(0.18,0.18)"><g transform="" style="fill: rgb(0, 0, 0);">
<g>
	<path d="M100,34.375c0-9.505-3.354-17.611-10.059-24.316S75.131,0,65.625,0H0v100h100V34.375z"/>
</g>
</g></g><g transform="translate(108,288) scale(0.18,0.18)"><g transform="" style="fill: rgb(0, 0, 0);">
<g>
	<path d="M40.625,0H100v100H40.625L0,50L40.625,0z"/>
</g>
</g></g><g transform="translate(126,288) scale(0.18,0.18)"><g transform="" style="fill: rgb(0, 0, 0);">
<rect width="100" height="100"/>
</g></g><g transform="translate(162,288) scale(0.18,0.18)"><g transform="" style="fill: rgb(0, 0, 0);">
<g>
	<path d="M100,59.375V0H0v59.375L50,100L100,59.375z"/>
</g>
</g></g><g transform="translate(324,288) scale(0.18,0.18)"><g transform="" style="fill: rgb(0, 0, 0);">
<g>
	<path d="M100,65.625c0,9.506-3.354,17.611-10.059,24.316S75.131,100,65.625,100h-31.25c-9.505,0-17.611-3.354-24.316-10.059
		S0,75.131,0,65.625v-31.25c0-9.505,3.353-17.611,10.059-24.316S24.87,0,34.375,0h31.25c9.506,0,17.611,3.353,24.316,10.059
		S100,24.87,100,34.375V65.625z"/>
</g>
</g></g><g transform="translate(360,288) scale(0.18,0.18)"><g transform="" style="fill: rgb(0, 0, 0);">
<rect width="100" height="100"/>
</g></g><g transform="translate(378,288) scale(0.18,0.18)"><g transform="" style="fill: rgb(0, 0, 0);">
<g>
	<path d="M100,0H0v100h65.625c9.506,0,17.611-3.354,24.316-10.059S100,75.131,100,65.625V0z"/>
</g>
</g></g><g transform="translate(432,288) scale(0.18,0.18)"><g transform="" style="fill: rgb(0, 0, 0);">
<g>
	<path d="M100,59.375V0H0v59.375L50,100L100,59.375z"/>
</g>
</g></g><g transform="translate(36,306) scale(0.18,0.18)"><g transform="" style="fill: rgb(0, 0, 0);">
<g>
	<path d="M100,0H0v65.625c0,9.506,3.353,17.611,10.059,24.316S24.87,100,34.375,100H100V0z"/>
</g>
</g></g><g transform="translate(54,306) scale(0.18,0.18)"><g transform="" style="fill: rgb(0, 0, 0);">
<rect width="100" height="100"/>
</g></g><g transform="translate(72,306) scale(0.18,0.18)"><g transform="" style="fill: rgb(0, 0, 0);">
<rect width="100" height="100"/>
</g></g><g transform="translate(90,306) scale(0.18,0.18)"><g transform="" style="fill: rgb(0, 0, 0);">
<g>
	<path d="M100,34.375c0-9.505-3.354-17.611-10.059-24.316S75.131,0,65.625,0H0v100h100V34.375z"/>
</g>
</g></g><g transform="translate(126,306) scale(0.18,0.18)"><g transform="" style="fill: rgb(0, 0, 0);">
<g>
	<path d="M100,59.375V0H0v59.375L50,100L100,59.375z"/>
</g>
</g></g><g transform="translate(180,306) scale(0.18,0.18)"><g transform="" style="fill: rgb(0, 0, 0);">
<g>
	<path d="M40.625,0H100v100H40.625L0,50L40.625,0z"/>
</g>
</g></g><g transform="translate(198,306) scale(0.18,0.18)"><g transform="" style="fill: rgb(0, 0, 0);">
<g>
	<path d="M100,34.375c0-9.505-3.354-17.611-10.059-24.316S75.131,0,65.625,0H0v100h100V34.375z"/>
</g>
</g></g><g transform="translate(234,306) scale(0.18,0.18)"><g transform="" style="fill: rgb(0, 0, 0);">
<g>
	<path d="M100,65.625c0,9.506-3.354,17.611-10.059,24.316S75.131,100,65.625,100h-31.25c-9.505,0-17.611-3.354-24.316-10.059
		S0,75.131,0,65.625v-31.25c0-9.505,3.353-17.611,10.059-24.316S24.87,0,34.375,0h31.25c9.506,0,17.611,3.353,24.316,10.059
		S100,24.87,100,34.375V65.625z"/>
</g>
</g></g><g transform="translate(306,306) scale(0.18,0.18)"><g transform="" style="fill: rgb(0, 0, 0);">
<g>
	<path d="M100,65.625c0,9.506-3.354,17.611-10.059,24.316S75.131,100,65.625,100h-31.25c-9.505,0-17.611-3.354-24.316-10.059
		S0,75.131,0,65.625v-31.25c0-9.505,3.353-17.611,10.059-24.316S24.87,0,34.375,0h31.25c9.506,0,17.611,3.353,24.316,10.059
		S100,24.87,100,34.375V65.625z"/>
</g>
</g></g><g transform="translate(360,306) scale(0.18,0.18)"><g transform="" style="fill: rgb(0, 0, 0);">
<g>
	<path d="M100,59.375V0H0v59.375L50,100L100,59.375z"/>
</g>
</g></g><g transform="translate(414,306) scale(0.18,0.18)"><g transform="" style="fill: rgb(0, 0, 0);">
<g>
	<path d="M100,40.625V100H0V40.625L50,0L100,40.625z"/>
</g>
</g></g><g transform="translate(468,306) scale(0.18,0.18)"><g transform="" style="fill: rgb(0, 0, 0);">
<g>
	<path d="M100,40.625V100H0V40.625L50,0L100,40.625z"/>
</g>
</g></g><g transform="translate(0,324) scale(0.18,0.18)"><g transform="" style="fill: rgb(0, 0, 0);">
<g>
	<path d="M100,65.625c0,9.506-3.354,17.611-10.059,24.316S75.131,100,65.625,100h-31.25c-9.505,0-17.611-3.354-24.316-10.059
		S0,75.131,0,65.625v-31.25c0-9.505,3.353-17.611,10.059-24.316S24.87,0,34.375,0h31.25c9.506,0,17.611,3.353,24.316,10.059
		S100,24.87,100,34.375V65.625z"/>
</g>
</g></g><g transform="translate(72,324) scale(0.18,0.18)"><g transform="" style="fill: rgb(0, 0, 0);">
<g>
	<path d="M100,0H0v65.625c0,9.506,3.353,17.611,10.059,24.316S24.87,100,34.375,100H100V0z"/>
</g>
</g></g><g transform="translate(90,324) scale(0.18,0.18)"><g transform="" style="fill: rgb(0, 0, 0);">
<rect width="100" height="100"/>
</g></g><g transform="translate(108,324) scale(0.18,0.18)"><g transform="" style="fill: rgb(0, 0, 0);">
<g>
	<path d="M59.375,0H0v100h59.375L100,50L59.375,0z"/>
</g>
</g></g><g transform="translate(144,324) scale(0.18,0.18)"><g transform="" style="fill: rgb(0, 0, 0);">
<g>
	<path d="M100,40.625V100H0V40.625L50,0L100,40.625z"/>
</g>
</g></g><g transform="translate(198,324) scale(0.18,0.18)"><g transform="" style="fill: rgb(0, 0, 0);">
<rect width="100" height="100"/>
</g></g><g transform="translate(378,324) scale(0.18,0.18)"><g transform="" style="fill: rgb(0, 0, 0);">
<g>
	<path d="M100,40.625V100H0V40.625L50,0L100,40.625z"/>
</g>
</g></g><g transform="translate(414,324) scale(0.18,0.18)"><g transform="" style="fill: rgb(0, 0, 0);">
<g>
	<path d="M100,0H0v65.625c0,9.506,3.353,17.611,10.059,24.316S24.87,100,34.375,100H100V0z"/>
</g>
</g></g><g transform="translate(432,324) scale(0.18,0.18)"><g transform="" style="fill: rgb(0, 0, 0);">
<rect width="100" height="100"/>
</g></g><g transform="translate(450,324) scale(0.18,0.18)"><g transform="" style="fill: rgb(0, 0, 0);">
<rect width="100" height="100"/>
</g></g><g transform="translate(468,324) scale(0.18,0.18)"><g transform="" style="fill: rgb(0, 0, 0);">
<rect width="100" height="100"/>
</g></g><g transform="translate(90,342) scale(0.18,0.18)"><g transform="" style="fill: rgb(0, 0, 0);">
<rect width="100" height="100"/>
</g></g><g transform="translate(126,342) scale(0.18,0.18)"><g transform="" style="fill: rgb(0, 0, 0);">
<g>
	<path d="M100,34.375V0H34.375C24.87,0,16.764,3.353,10.059,10.059S0,24.87,0,34.375V100h100V34.375z"/>
</g>
</g></g><g transform="translate(144,342) scale(0.18,0.18)"><g transform="" style="fill: rgb(0, 0, 0);">
<rect width="100" height="100"/>
</g></g><g transform="translate(198,342) scale(0.18,0.18)"><g transform="" style="fill: rgb(0, 0, 0);">
<rect width="100" height="100"/>
</g></g><g transform="translate(216,342) scale(0.18,0.18)"><g transform="" style="fill: rgb(0, 0, 0);">
<g>
	<path d="M100,34.375c0-9.505-3.354-17.611-10.059-24.316S75.131,0,65.625,0H0v100h100V34.375z"/>
</g>
</g></g><g transform="translate(270,342) scale(0.18,0.18)"><g transform="" style="fill: rgb(0, 0, 0);">
<g>
	<path d="M100,34.375V0H34.375C24.87,0,16.764,3.353,10.059,10.059S0,24.87,0,34.375V100h100V34.375z"/>
</g>
</g></g><g transform="translate(288,342) scale(0.18,0.18)"><g transform="" style="fill: rgb(0, 0, 0);">
<rect width="100" height="100"/>
</g></g><g transform="translate(306,342) scale(0.18,0.18)"><g transform="" style="fill: rgb(0, 0, 0);">
<rect width="100" height="100"/>
</g></g><g transform="translate(324,342) scale(0.18,0.18)"><g transform="" style="fill: rgb(0, 0, 0);">
<g>
	<path d="M59.375,0H0v100h59.375L100,50L59.375,0z"/>
</g>
</g></g><g transform="translate(360,342) scale(0.18,0.18)"><g transform="" style="fill: rgb(0, 0, 0);">
<g>
	<path d="M100,34.375V0H34.375C24.87,0,16.764,3.353,10.059,10.059S0,24.87,0,34.375V100h100V34.375z"/>
</g>
</g></g><g transform="translate(378,342) scale(0.18,0.18)"><g transform="" style="fill: rgb(0, 0, 0);">
<rect width="100" height="100"/>
</g></g><g transform="translate(432,342) scale(0.18,0.18)"><g transform="" style="fill: rgb(0, 0, 0);">
<rect width="100" height="100"/>
</g></g><g transform="translate(468,342) scale(0.18,0.18)"><g transform="" style="fill: rgb(0, 0, 0);">
<rect width="100" height="100"/>
</g></g><g transform="translate(486,342) scale(0.18,0.18)"><g transform="" style="fill: rgb(0, 0, 0);">
<g>
	<path d="M100,34.375c0-9.505-3.354-17.611-10.059-24.316S75.131,0,65.625,0H0v100h100V34.375z"/>
</g>
</g></g><g transform="translate(18,360) scale(0.18,0.18)"><g transform="" style="fill: rgb(0, 0, 0);">
<g>
	<path d="M40.625,0H100v100H40.625L0,50L40.625,0z"/>
</g>
</g></g><g transform="translate(36,360) scale(0.18,0.18)"><g transform="" style="fill: rgb(0, 0, 0);">
<rect width="100" height="100"/>
</g></g><g transform="translate(54,360) scale(0.18,0.18)"><g transform="" style="fill: rgb(0, 0, 0);">
<rect width="100" height="100"/>
</g></g><g transform="translate(72,360) scale(0.18,0.18)"><g transform="" style="fill: rgb(0, 0, 0);">
<rect width="100" height="100"/>
</g></g><g transform="translate(90,360) scale(0.18,0.18)"><g transform="" style="fill: rgb(0, 0, 0);">
<rect width="100" height="100"/>
</g></g><g transform="translate(108,360) scale(0.18,0.18)"><g transform="" style="fill: rgb(0, 0, 0);">
<rect width="100" height="100"/>
</g></g><g transform="translate(126,360) scale(0.18,0.18)"><g transform="" style="fill: rgb(0, 0, 0);">
<rect width="100" height="100"/>
</g></g><g transform="translate(144,360) scale(0.18,0.18)"><g transform="" style="fill: rgb(0, 0, 0);">
<rect width="100" height="100"/>
</g></g><g transform="translate(162,360) scale(0.18,0.18)"><g transform="" style="fill: rgb(0, 0, 0);">
<rect width="100" height="100"/>
</g></g><g transform="translate(180,360) scale(0.18,0.18)"><g transform="" style="fill: rgb(0, 0, 0);">
<rect width="100" height="100"/>
</g></g><g transform="translate(198,360) scale(0.18,0.18)"><g transform="" style="fill: rgb(0, 0, 0);">
<rect width="100" height="100"/>
</g></g><g transform="translate(216,360) scale(0.18,0.18)"><g transform="" style="fill: rgb(0, 0, 0);">
<rect width="100" height="100"/>
</g></g><g transform="translate(234,360) scale(0.18,0.18)"><g transform="" style="fill: rgb(0, 0, 0);">
<g>
	<path d="M100,34.375c0-9.505-3.354-17.611-10.059-24.316S75.131,0,65.625,0H0v100h100V34.375z"/>
</g>
</g></g><g transform="translate(270,360) scale(0.18,0.18)"><g transform="" style="fill: rgb(0, 0, 0);">
<rect width="100" height="100"/>
</g></g><g transform="translate(342,360) scale(0.18,0.18)"><g transform="" style="fill: rgb(0, 0, 0);">
<g>
	<path d="M40.625,0H100v100H40.625L0,50L40.625,0z"/>
</g>
</g></g><g transform="translate(360,360) scale(0.18,0.18)"><g transform="" style="fill: rgb(0, 0, 0);">
<rect width="100" height="100"/>
</g></g><g transform="translate(378,360) scale(0.18,0.18)"><g transform="" style="fill: rgb(0, 0, 0);">
<rect width="100" height="100"/>
</g></g><g transform="translate(396,360) scale(0.18,0.18)"><g transform="" style="fill: rgb(0, 0, 0);">
<rect width="100" height="100"/>
</g></g><g transform="translate(414,360) scale(0.18,0.18)"><g transform="" style="fill: rgb(0, 0, 0);">
<rect width="100" height="100"/>
</g></g><g transform="translate(432,360) scale(0.18,0.18)"><g transform="" style="fill: rgb(0, 0, 0);">
<rect width="100" height="100"/>
</g></g><g transform="translate(468,360) scale(0.18,0.18)"><g transform="" style="fill: rgb(0, 0, 0);">
<rect width="100" height="100"/>
</g></g><g transform="translate(486,360) scale(0.18,0.18)"><g transform="" style="fill: rgb(0, 0, 0);">
<rect width="100" height="100"/>
</g></g><g transform="translate(144,378) scale(0.18,0.18)"><g transform="" style="fill: rgb(0, 0, 0);">
<rect width="100" height="100"/>
</g></g><g transform="translate(198,378) scale(0.18,0.18)"><g transform="" style="fill: rgb(0, 0, 0);">
<rect width="100" height="100"/>
</g></g><g transform="translate(216,378) scale(0.18,0.18)"><g transform="" style="fill: rgb(0, 0, 0);">
<rect width="100" height="100"/>
</g></g><g transform="translate(234,378) scale(0.18,0.18)"><g transform="" style="fill: rgb(0, 0, 0);">
<rect width="100" height="100"/>
</g></g><g transform="translate(252,378) scale(0.18,0.18)"><g transform="" style="fill: rgb(0, 0, 0);">
<rect width="100" height="100"/>
</g></g><g transform="translate(270,378) scale(0.18,0.18)"><g transform="" style="fill: rgb(0, 0, 0);">
<g>
	<path d="M100,0H0v100h65.625c9.506,0,17.611-3.354,24.316-10.059S100,75.131,100,65.625V0z"/>
</g>
</g></g><g transform="translate(306,378) scale(0.18,0.18)"><g transform="" style="fill: rgb(0, 0, 0);">
<g>
	<path d="M40.625,0H100v100H40.625L0,50L40.625,0z"/>
</g>
</g></g><g transform="translate(324,378) scale(0.18,0.18)"><g transform="" style="fill: rgb(0, 0, 0);">
<g>
	<path d="M100,34.375c0-9.505-3.354-17.611-10.059-24.316S75.131,0,65.625,0H0v100h100V34.375z"/>
</g>
</g></g><g transform="translate(360,378) scale(0.18,0.18)"><g transform="" style="fill: rgb(0, 0, 0);">
<rect width="100" height="100"/>
</g></g><g transform="translate(432,378) scale(0.18,0.18)"><g transform="" style="fill: rgb(0, 0, 0);">
<rect width="100" height="100"/>
</g></g><g transform="translate(468,378) scale(0.18,0.18)"><g transform="" style="fill: rgb(0, 0, 0);">
<g>
	<path d="M100,0H0v65.625c0,9.506,3.353,17.611,10.059,24.316S24.87,100,34.375,100H100V0z"/>
</g>
</g></g><g transform="translate(486,378) scale(0.18,0.18)"><g transform="" style="fill: rgb(0, 0, 0);">
<rect width="100" height="100"/>
</g></g><g transform="translate(504,378) scale(0.18,0.18)"><g transform="" style="fill: rgb(0, 0, 0);">
<g>
	<path d="M59.375,0H0v100h59.375L100,50L59.375,0z"/>
</g>
</g></g><g transform="translate(144,396) scale(0.18,0.18)"><g transform="" style="fill: rgb(0, 0, 0);">
<rect width="100" height="100"/>
</g></g><g transform="translate(162,396) scale(0.18,0.18)"><g transform="" style="fill: rgb(0, 0, 0);">
<g>
	<path d="M100,34.375c0-9.505-3.354-17.611-10.059-24.316S75.131,0,65.625,0H0v100h100V34.375z"/>
</g>
</g></g><g transform="translate(198,396) scale(0.18,0.18)"><g transform="" style="fill: rgb(0, 0, 0);">
<rect width="100" height="100"/>
</g></g><g transform="translate(234,396) scale(0.18,0.18)"><g transform="" style="fill: rgb(0, 0, 0);">
<g>
	<path d="M100,59.375V0H0v59.375L50,100L100,59.375z"/>
</g>
</g></g><g transform="translate(288,396) scale(0.18,0.18)"><g transform="" style="fill: rgb(0, 0, 0);">
<g>
	<path d="M100,40.625V100H0V40.625L50,0L100,40.625z"/>
</g>
</g></g><g transform="translate(324,396) scale(0.18,0.18)"><g transform="" style="fill: rgb(0, 0, 0);">
<g>
	<path d="M100,59.375V0H0v59.375L50,100L100,59.375z"/>
</g>
</g></g><g transform="translate(360,396) scale(0.18,0.18)"><g transform="" style="fill: rgb(0, 0, 0);">
<rect width="100" height="100"/>
</g></g><g transform="translate(396,396) scale(0.18,0.18)"><g transform="" style="fill: rgb(0, 0, 0);">
<g>
	<path d="M100,65.625c0,9.506-3.354,17.611-10.059,24.316S75.131,100,65.625,100h-31.25c-9.505,0-17.611-3.354-24.316-10.059
		S0,75.131,0,65.625v-31.25c0-9.505,3.353-17.611,10.059-24.316S24.87,0,34.375,0h31.25c9.506,0,17.611,3.353,24.316,10.059
		S100,24.87,100,34.375V65.625z"/>
</g>
</g></g><g transform="translate(432,396) scale(0.18,0.18)"><g transform="" style="fill: rgb(0, 0, 0);">
<rect width="100" height="100"/>
</g></g><g transform="translate(486,396) scale(0.18,0.18)"><g transform="" style="fill: rgb(0, 0, 0);">
<rect width="100" height="100"/>
</g></g><g transform="translate(144,414) scale(0.18,0.18)"><g transform="" style="fill: rgb(0, 0, 0);">
<g>
	<path d="M100,0H0v65.625c0,9.506,3.353,17.611,10.059,24.316S24.87,100,34.375,100H100V0z"/>
</g>
</g></g><g transform="translate(162,414) scale(0.18,0.18)"><g transform="" style="fill: rgb(0, 0, 0);">
<rect width="100" height="100"/>
</g></g><g transform="translate(180,414) scale(0.18,0.18)"><g transform="" style="fill: rgb(0, 0, 0);">
<rect width="100" height="100"/>
</g></g><g transform="translate(198,414) scale(0.18,0.18)"><g transform="" style="fill: rgb(0, 0, 0);">
<g>
	<path d="M100,0H0v100h65.625c9.506,0,17.611-3.354,24.316-10.059S100,75.131,100,65.625V0z"/>
</g>
</g></g><g transform="translate(288,414) scale(0.18,0.18)"><g transform="" style="fill: rgb(0, 0, 0);">
<g>
	<path d="M100,0H0v65.625c0,9.506,3.353,17.611,10.059,24.316S24.87,100,34.375,100H100V0z"/>
</g>
</g></g><g transform="translate(306,414) scale(0.18,0.18)"><g transform="" style="fill: rgb(0, 0, 0);">
<g>
	<path d="M59.375,0H0v100h59.375L100,50L59.375,0z"/>
</g>
</g></g><g transform="translate(360,414) scale(0.18,0.18)"><g transform="" style="fill: rgb(0, 0, 0);">
<rect width="100" height="100"/>
</g></g><g transform="translate(432,414) scale(0.18,0.18)"><g transform="" style="fill: rgb(0, 0, 0);">
<rect width="100" height="100"/>
</g></g><g transform="translate(486,414) scale(0.18,0.18)"><g transform="" style="fill: rgb(0, 0, 0);">
<rect width="100" height="100"/>
</g></g><g transform="translate(162,432) scale(0.18,0.18)"><g transform="" style="fill: rgb(0, 0, 0);">
<g>
	<path d="M100,59.375V0H0v59.375L50,100L100,59.375z"/>
</g>
</g></g><g transform="translate(216,432) scale(0.18,0.18)"><g transform="" style="fill: rgb(0, 0, 0);">
<g>
	<path d="M100,40.625V100H0V40.625L50,0L100,40.625z"/>
</g>
</g></g><g transform="translate(252,432) scale(0.18,0.18)"><g transform="" style="fill: rgb(0, 0, 0);">
<g>
	<path d="M100,34.375V0H34.375C24.87,0,16.764,3.353,10.059,10.059S0,24.87,0,34.375V100h100V34.375z"/>
</g>
</g></g><g transform="translate(270,432) scale(0.18,0.18)"><g transform="" style="fill: rgb(0, 0, 0);">
<g>
	<path d="M59.375,0H0v100h59.375L100,50L59.375,0z"/>
</g>
</g></g><g transform="translate(360,432) scale(0.18,0.18)"><g transform="" style="fill: rgb(0, 0, 0);">
<rect width="100" height="100"/>
</g></g><g transform="translate(378,432) scale(0.18,0.18)"><g transform="" style="fill: rgb(0, 0, 0);">
<rect width="100" height="100"/>
</g></g><g transform="translate(396,432) scale(0.18,0.18)"><g transform="" style="fill: rgb(0, 0, 0);">
<rect width="100" height="100"/>
</g></g><g transform="translate(414,432) scale(0.18,0.18)"><g transform="" style="fill: rgb(0, 0, 0);">
<rect width="100" height="100"/>
</g></g><g transform="translate(432,432) scale(0.18,0.18)"><g transform="" style="fill: rgb(0, 0, 0);">
<rect width="100" height="100"/>
</g></g><g transform="translate(486,432) scale(0.18,0.18)"><g transform="" style="fill: rgb(0, 0, 0);">
<rect width="100" height="100"/>
</g></g><g transform="translate(504,432) scale(0.18,0.18)"><g transform="" style="fill: rgb(0, 0, 0);">
<g>
	<path d="M59.375,0H0v100h59.375L100,50L59.375,0z"/>
</g>
</g></g><g transform="translate(144,450) scale(0.18,0.18)"><g transform="" style="fill: rgb(0, 0, 0);">
<g>
	<path d="M100,40.625V100H0V40.625L50,0L100,40.625z"/>
</g>
</g></g><g transform="translate(180,450) scale(0.18,0.18)"><g transform="" style="fill: rgb(0, 0, 0);">
<g>
	<path d="M40.625,0H100v100H40.625L0,50L40.625,0z"/>
</g>
</g></g><g transform="translate(198,450) scale(0.18,0.18)"><g transform="" style="fill: rgb(0, 0, 0);">
<rect width="100" height="100"/>
</g></g><g transform="translate(216,450) scale(0.18,0.18)"><g transform="" style="fill: rgb(0, 0, 0);">
<rect width="100" height="100"/>
</g></g><g transform="translate(252,450) scale(0.18,0.18)"><g transform="" style="fill: rgb(0, 0, 0);">
<g>
	<path d="M100,59.375V0H0v59.375L50,100L100,59.375z"/>
</g>
</g></g><g transform="translate(288,450) scale(0.18,0.18)"><g transform="" style="fill: rgb(0, 0, 0);">
<g>
	<path d="M100,34.375V0H34.375C24.87,0,16.764,3.353,10.059,10.059S0,24.87,0,34.375V100h100V34.375z"/>
</g>
</g></g><g transform="translate(306,450) scale(0.18,0.18)"><g transform="" style="fill: rgb(0, 0, 0);">
<g>
	<path d="M59.375,0H0v100h59.375L100,50L59.375,0z"/>
</g>
</g></g><g transform="translate(342,450) scale(0.18,0.18)"><g transform="" style="fill: rgb(0, 0, 0);">
<g>
	<path d="M100,34.375V0H34.375C24.87,0,16.764,3.353,10.059,10.059S0,24.87,0,34.375V100h100V34.375z"/>
</g>
</g></g><g transform="translate(360,450) scale(0.18,0.18)"><g transform="" style="fill: rgb(0, 0, 0);">
<g>
	<path d="M100,0H0v100h65.625c9.506,0,17.611-3.354,24.316-10.059S100,75.131,100,65.625V0z"/>
</g>
</g></g><g transform="translate(414,450) scale(0.18,0.18)"><g transform="" style="fill: rgb(0, 0, 0);">
<rect width="100" height="100"/>
</g></g><g transform="translate(432,450) scale(0.18,0.18)"><g transform="" style="fill: rgb(0, 0, 0);">
<rect width="100" height="100"/>
</g></g><g transform="translate(450,450) scale(0.18,0.18)"><g transform="" style="fill: rgb(0, 0, 0);">
<rect width="100" height="100"/>
</g></g><g transform="translate(468,450) scale(0.18,0.18)"><g transform="" style="fill: rgb(0, 0, 0);">
<rect width="100" height="100"/>
</g></g><g transform="translate(486,450) scale(0.18,0.18)"><g transform="" style="fill: rgb(0, 0, 0);">
<g>
	<path d="M100,0H0v100h65.625c9.506,0,17.611-3.354,24.316-10.059S100,75.131,100,65.625V0z"/>
</g>
</g></g><g transform="translate(144,468) scale(0.18,0.18)"><g transform="" style="fill: rgb(0, 0, 0);">
<g>
	<path d="M100,59.375V0H0v59.375L50,100L100,59.375z"/>
</g>
</g></g><g transform="translate(216,468) scale(0.18,0.18)"><g transform="" style="fill: rgb(0, 0, 0);">
<rect width="100" height="100"/>
</g></g><g transform="translate(270,468) scale(0.18,0.18)"><g transform="" style="fill: rgb(0, 0, 0);">
<g>
	<path d="M40.625,0H100v100H40.625L0,50L40.625,0z"/>
</g>
</g></g><g transform="translate(288,468) scale(0.18,0.18)"><g transform="" style="fill: rgb(0, 0, 0);">
<rect width="100" height="100"/>
</g></g><g transform="translate(342,468) scale(0.18,0.18)"><g transform="" style="fill: rgb(0, 0, 0);">
<g>
	<path d="M100,59.375V0H0v59.375L50,100L100,59.375z"/>
</g>
</g></g><g transform="translate(414,468) scale(0.18,0.18)"><g transform="" style="fill: rgb(0, 0, 0);">
<rect width="100" height="100"/>
</g></g><g transform="translate(450,468) scale(0.18,0.18)"><g transform="" style="fill: rgb(0, 0, 0);">
<rect width="100" height="100"/>
</g></g><g transform="translate(504,468) scale(0.18,0.18)"><g transform="" style="fill: rgb(0, 0, 0);">
<g>
	<path d="M100,65.625c0,9.506-3.354,17.611-10.059,24.316S75.131,100,65.625,100h-31.25c-9.505,0-17.611-3.354-24.316-10.059
		S0,75.131,0,65.625v-31.25c0-9.505,3.353-17.611,10.059-24.316S24.87,0,34.375,0h31.25c9.506,0,17.611,3.353,24.316,10.059
		S100,24.87,100,34.375V65.625z"/>
</g>
</g></g><g transform="translate(180,486) scale(0.18,0.18)"><g transform="" style="fill: rgb(0, 0, 0);">
<g>
	<path d="M100,40.625V100H0V40.625L50,0L100,40.625z"/>
</g>
</g></g><g transform="translate(216,486) scale(0.18,0.18)"><g transform="" style="fill: rgb(0, 0, 0);">
<rect width="100" height="100"/>
</g></g><g transform="translate(252,486) scale(0.18,0.18)"><g transform="" style="fill: rgb(0, 0, 0);">
<g>
	<path d="M100,40.625V100H0V40.625L50,0L100,40.625z"/>
</g>
</g></g><g transform="translate(288,486) scale(0.18,0.18)"><g transform="" style="fill: rgb(0, 0, 0);">
<rect width="100" height="100"/>
</g></g><g transform="translate(360,486) scale(0.18,0.18)"><g transform="" style="fill: rgb(0, 0, 0);">
<g>
	<path d="M100,40.625V100H0V40.625L50,0L100,40.625z"/>
</g>
</g></g><g transform="translate(396,486) scale(0.18,0.18)"><g transform="" style="fill: rgb(0, 0, 0);">
<g>
	<path d="M100,34.375V0H34.375C24.87,0,16.764,3.353,10.059,10.059S0,24.87,0,34.375V100h100V34.375z"/>
</g>
</g></g><g transform="translate(414,486) scale(0.18,0.18)"><g transform="" style="fill: rgb(0, 0, 0);">
<rect width="100" height="100"/>
</g></g><g transform="translate(432,486) scale(0.18,0.18)"><g transform="" style="fill: rgb(0, 0, 0);">
<rect width="100" height="100"/>
</g></g><g transform="translate(450,486) scale(0.18,0.18)"><g transform="" style="fill: rgb(0, 0, 0);">
<rect width="100" height="100"/>
</g></g><g transform="translate(486,486) scale(0.18,0.18)"><g transform="" style="fill: rgb(0, 0, 0);">
<g>
	<path d="M100,40.625V100H0V40.625L50,0L100,40.625z"/>
</g>
</g></g><g transform="translate(144,504) scale(0.18,0.18)"><g transform="" style="fill: rgb(0, 0, 0);">
<g>
	<path d="M100,65.625c0,9.506-3.354,17.611-10.059,24.316S75.131,100,65.625,100h-31.25c-9.505,0-17.611-3.354-24.316-10.059
		S0,75.131,0,65.625v-31.25c0-9.505,3.353-17.611,10.059-24.316S24.87,0,34.375,0h31.25c9.506,0,17.611,3.353,24.316,10.059
		S100,24.87,100,34.375V65.625z"/>
</g>
</g></g><g transform="translate(180,504) scale(0.18,0.18)"><g transform="" style="fill: rgb(0, 0, 0);">
<g>
	<path d="M100,59.375V0H0v59.375L50,100L100,59.375z"/>
</g>
</g></g><g transform="translate(216,504) scale(0.18,0.18)"><g transform="" style="fill: rgb(0, 0, 0);">
<g>
	<path d="M100,0H0v65.625c0,9.506,3.353,17.611,10.059,24.316S24.87,100,34.375,100H100V0z"/>
</g>
</g></g><g transform="translate(234,504) scale(0.18,0.18)"><g transform="" style="fill: rgb(0, 0, 0);">
<rect width="100" height="100"/>
</g></g><g transform="translate(252,504) scale(0.18,0.18)"><g transform="" style="fill: rgb(0, 0, 0);">
<rect width="100" height="100"/>
</g></g><g transform="translate(270,504) scale(0.18,0.18)"><g transform="" style="fill: rgb(0, 0, 0);">
<rect width="100" height="100"/>
</g></g><g transform="translate(288,504) scale(0.18,0.18)"><g transform="" style="fill: rgb(0, 0, 0);">
<rect width="100" height="100"/>
</g></g><g transform="translate(306,504) scale(0.18,0.18)"><g transform="" style="fill: rgb(0, 0, 0);">
<g>
	<path d="M59.375,0H0v100h59.375L100,50L59.375,0z"/>
</g>
</g></g><g transform="translate(342,504) scale(0.18,0.18)"><g transform="" style="fill: rgb(0, 0, 0);">
<g>
	<path d="M40.625,0H100v100H40.625L0,50L40.625,0z"/>
</g>
</g></g><g transform="translate(360,504) scale(0.18,0.18)"><g transform="" style="fill: rgb(0, 0, 0);">
<g>
	<path d="M100,0H0v100h65.625c9.506,0,17.611-3.354,24.316-10.059S100,75.131,100,65.625V0z"/>
</g>
</g></g><g transform="translate(396,504) scale(0.18,0.18)"><g transform="" style="fill: rgb(0, 0, 0);">
<g>
	<path d="M100,0H0v65.625c0,9.506,3.353,17.611,10.059,24.316S24.87,100,34.375,100H100V0z"/>
</g>
</g></g><g transform="translate(414,504) scale(0.18,0.18)"><g transform="" style="fill: rgb(0, 0, 0);">
<rect width="100" height="100"/>
</g></g><g transform="translate(432,504) scale(0.18,0.18)"><g transform="" style="fill: rgb(0, 0, 0);">
<rect width="100" height="100"/>
</g></g><g transform="translate(450,504) scale(0.18,0.18)"><g transform="" style="fill: rgb(0, 0, 0);">
<g>
	<path d="M100,0H0v100h65.625c9.506,0,17.611-3.354,24.316-10.059S100,75.131,100,65.625V0z"/>
</g>
</g></g><g transform="translate(486,504) scale(0.18,0.18)"><g transform="" style="fill: rgb(0, 0, 0);">
<g>
	<path d="M100,59.375V0H0v59.375L50,100L100,59.375z"/>
</g>
</g></g><g transform="translate(0,0) scale(1.2475247524752, 1.2475247524752)"><g transform="" style="fill: rgb(0, 0, 0);">
<g>
	<path style="fill:none;" d="M90.055,71.25C87.113,70.234,85,67.451,85,64.166s2.113-6.066,5.052-7.084
		C87.113,56.066,85,53.283,85,50c0-3.284,2.113-6.068,5.052-7.083C87.113,41.899,85,39.117,85,35.833s2.113-6.067,5.052-7.083
		C87.113,27.733,85,24.951,85,21.667s2.113-6.068,5.053-7.083c-2.171-0.75-3.886-2.464-4.636-4.635C84.4,12.887,81.618,15,78.334,15
		c-3.285,0-6.068-2.114-7.084-5.055C70.234,12.886,67.451,15,64.166,15c-3.284,0-6.066-2.113-7.083-5.051
		C56.066,12.887,53.284,15,50,15s-6.068-2.113-7.083-5.052C41.9,12.887,39.117,15,35.833,15s-6.067-2.113-7.083-5.051
		C27.734,12.887,24.951,15,21.667,15s-6.068-2.114-7.083-5.054c-0.75,2.172-2.465,3.887-4.636,4.637
		c2.938,1.016,5.052,3.8,5.052,7.084s-2.114,6.066-5.052,7.083C12.887,29.766,15,32.549,15,35.833s-2.113,6.066-5.052,7.083
		C12.887,43.932,15,46.715,15,50s-2.113,6.068-5.051,7.082C12.887,58.1,15,60.881,15,64.166s-2.115,6.068-5.055,7.084
		C12.886,72.266,15,75.049,15,78.334c0,3.283-2.114,6.066-5.052,7.082c2.17,0.75,3.885,2.465,4.635,4.635
		c1.016-2.938,3.8-5.051,7.084-5.051s6.067,2.113,7.083,5.051C29.766,87.113,32.549,85,35.833,85s6.067,2.113,7.083,5.051
		C43.932,87.113,46.715,85,50,85s6.068,2.113,7.083,5.051C58.1,87.113,60.882,85,64.166,85c3.285,0,6.068,2.113,7.084,5.055
		C72.266,87.113,75.049,85,78.334,85c3.284,0,6.066,2.113,7.083,5.051c0.75-2.17,2.465-3.885,4.635-4.635
		C87.113,84.4,85,81.617,85,78.334C85,75.049,87.113,72.266,90.055,71.25z"/>
	<path d="M100,21.667c0-3.284-2.113-6.068-5.053-7.083C97.887,13.567,100,10.784,100,7.5c0-4.144-3.357-7.5-7.5-7.5
		c-3.284,0-6.066,2.112-7.083,5.051C84.4,2.112,81.618,0,78.334,0c-3.285,0-6.068,2.114-7.084,5.054C70.234,2.114,67.451,0,64.166,0
		c-3.284,0-6.066,2.112-7.083,5.051C56.066,2.112,53.284,0,50,0s-6.068,2.112-7.083,5.052C41.9,2.112,39.117,0,35.833,0
		s-6.067,2.112-7.083,5.051C27.734,2.112,24.951,0,21.667,0s-6.068,2.114-7.083,5.053C13.568,2.114,10.784,0,7.5,0
		C3.357,0,0,3.356,0,7.5c0,3.284,2.114,6.067,5.053,7.083C2.114,15.599,0,18.383,0,21.667s2.113,6.066,5.051,7.083
		C2.113,29.766,0,32.549,0,35.833s2.113,6.066,5.052,7.083C2.113,43.932,0,46.715,0,50s2.113,6.068,5.051,7.082
		C2.113,58.1,0,60.881,0,64.166s2.114,6.068,5.054,7.084C2.114,72.266,0,75.049,0,78.334c0,3.283,2.113,6.066,5.051,7.082
		C2.113,86.434,0,89.215,0,92.5c0,4.143,3.357,7.5,7.5,7.5c0.518,0,1.023-0.053,1.512-0.152c2.608-0.533,4.716-2.426,5.572-4.898
		c1.015,2.938,3.799,5.051,7.083,5.051s6.067-2.111,7.083-5.051c1.016,2.938,3.799,5.051,7.083,5.051s6.067-2.111,7.083-5.051
		C43.932,97.887,46.715,100,50,100s6.068-2.113,7.083-5.053C58.1,97.885,60.882,100,64.166,100c3.285,0,6.068-2.115,7.084-5.055
		c1.016,2.939,3.799,5.055,7.084,5.055c3.284,0,6.066-2.113,7.083-5.053C86.434,97.887,89.216,100,92.5,100
		c4.143,0,7.5-3.357,7.5-7.5c0-3.285-2.113-6.066-5.052-7.084C97.887,84.4,100,81.617,100,78.334c0-3.285-2.113-6.068-5.055-7.084
		c2.939-1.016,5.055-3.799,5.055-7.084s-2.113-6.066-5.052-7.084C97.887,56.066,100,53.283,100,50c0-3.284-2.113-6.068-5.052-7.083
		c2.938-1.018,5.052-3.8,5.052-7.084s-2.113-6.067-5.052-7.083C97.887,27.733,100,24.951,100,21.667z M90.052,85.416
		c-2.17,0.75-3.885,2.465-4.635,4.635C84.4,87.113,81.618,85,78.334,85c-3.285,0-6.068,2.113-7.084,5.055
		C70.234,87.113,67.451,85,64.166,85c-3.284,0-6.066,2.113-7.083,5.051C56.066,87.113,53.284,85,50,85s-6.068,2.113-7.083,5.051
		C41.9,87.113,39.117,85,35.833,85s-6.067,2.113-7.083,5.051C27.734,87.113,24.951,85,21.667,85s-6.068,2.113-7.083,5.051
		c-0.75-2.17-2.465-3.885-4.635-4.635C12.887,84.4,15,81.617,15,78.334c0-3.285-2.115-6.068-5.055-7.084
		C12.886,70.234,15,67.451,15,64.166s-2.114-6.066-5.052-7.084C12.887,56.066,15,53.283,15,50c0-3.284-2.113-6.068-5.052-7.083
		c2.939-1.018,5.052-3.8,5.052-7.084s-2.113-6.067-5.051-7.083C12.887,27.733,15,24.951,15,21.667s-2.114-6.068-5.053-7.083
		c2.171-0.75,3.886-2.465,4.636-4.636c1.016,2.938,3.8,5.052,7.084,5.052s6.067-2.113,7.083-5.051
		C29.766,12.887,32.549,15,35.833,15s6.067-2.113,7.083-5.052C43.932,12.887,46.715,15,50,15s6.068-2.113,7.083-5.051
		C58.1,12.887,60.882,15,64.166,15c3.285,0,6.068-2.114,7.084-5.055C72.266,12.886,75.049,15,78.334,15
		c3.284,0,6.066-2.113,7.083-5.051c0.75,2.17,2.465,3.885,4.636,4.635C87.113,15.599,85,18.383,85,21.667s2.113,6.066,5.052,7.083
		C87.113,29.766,85,32.549,85,35.833s2.113,6.066,5.052,7.083C87.113,43.932,85,46.715,85,50s2.113,6.068,5.052,7.082
		C87.113,58.1,85,60.881,85,64.166s2.113,6.068,5.055,7.084C87.113,72.266,85,75.049,85,78.334C85,81.617,87.113,84.4,90.052,85.416
		z"/>
</g>
</g></g><g transform="translate(396,0) scale(1.2475247524752, 1.2475247524752)"><g transform="" style="fill: rgb(0, 0, 0);">
<g>
	<path style="fill:none;" d="M90.055,71.25C87.113,70.234,85,67.451,85,64.166s2.113-6.066,5.052-7.084
		C87.113,56.066,85,53.283,85,50c0-3.284,2.113-6.068,5.052-7.083C87.113,41.899,85,39.117,85,35.833s2.113-6.067,5.052-7.083
		C87.113,27.733,85,24.951,85,21.667s2.113-6.068,5.053-7.083c-2.171-0.75-3.886-2.464-4.636-4.635C84.4,12.887,81.618,15,78.334,15
		c-3.285,0-6.068-2.114-7.084-5.055C70.234,12.886,67.451,15,64.166,15c-3.284,0-6.066-2.113-7.083-5.051
		C56.066,12.887,53.284,15,50,15s-6.068-2.113-7.083-5.052C41.9,12.887,39.117,15,35.833,15s-6.067-2.113-7.083-5.051
		C27.734,12.887,24.951,15,21.667,15s-6.068-2.114-7.083-5.054c-0.75,2.172-2.465,3.887-4.636,4.637
		c2.938,1.016,5.052,3.8,5.052,7.084s-2.114,6.066-5.052,7.083C12.887,29.766,15,32.549,15,35.833s-2.113,6.066-5.052,7.083
		C12.887,43.932,15,46.715,15,50s-2.113,6.068-5.051,7.082C12.887,58.1,15,60.881,15,64.166s-2.115,6.068-5.055,7.084
		C12.886,72.266,15,75.049,15,78.334c0,3.283-2.114,6.066-5.052,7.082c2.17,0.75,3.885,2.465,4.635,4.635
		c1.016-2.938,3.8-5.051,7.084-5.051s6.067,2.113,7.083,5.051C29.766,87.113,32.549,85,35.833,85s6.067,2.113,7.083,5.051
		C43.932,87.113,46.715,85,50,85s6.068,2.113,7.083,5.051C58.1,87.113,60.882,85,64.166,85c3.285,0,6.068,2.113,7.084,5.055
		C72.266,87.113,75.049,85,78.334,85c3.284,0,6.066,2.113,7.083,5.051c0.75-2.17,2.465-3.885,4.635-4.635
		C87.113,84.4,85,81.617,85,78.334C85,75.049,87.113,72.266,90.055,71.25z"/>
	<path d="M100,21.667c0-3.284-2.113-6.068-5.053-7.083C97.887,13.567,100,10.784,100,7.5c0-4.144-3.357-7.5-7.5-7.5
		c-3.284,0-6.066,2.112-7.083,5.051C84.4,2.112,81.618,0,78.334,0c-3.285,0-6.068,2.114-7.084,5.054C70.234,2.114,67.451,0,64.166,0
		c-3.284,0-6.066,2.112-7.083,5.051C56.066,2.112,53.284,0,50,0s-6.068,2.112-7.083,5.052C41.9,2.112,39.117,0,35.833,0
		s-6.067,2.112-7.083,5.051C27.734,2.112,24.951,0,21.667,0s-6.068,2.114-7.083,5.053C13.568,2.114,10.784,0,7.5,0
		C3.357,0,0,3.356,0,7.5c0,3.284,2.114,6.067,5.053,7.083C2.114,15.599,0,18.383,0,21.667s2.113,6.066,5.051,7.083
		C2.113,29.766,0,32.549,0,35.833s2.113,6.066,5.052,7.083C2.113,43.932,0,46.715,0,50s2.113,6.068,5.051,7.082
		C2.113,58.1,0,60.881,0,64.166s2.114,6.068,5.054,7.084C2.114,72.266,0,75.049,0,78.334c0,3.283,2.113,6.066,5.051,7.082
		C2.113,86.434,0,89.215,0,92.5c0,4.143,3.357,7.5,7.5,7.5c0.518,0,1.023-0.053,1.512-0.152c2.608-0.533,4.716-2.426,5.572-4.898
		c1.015,2.938,3.799,5.051,7.083,5.051s6.067-2.111,7.083-5.051c1.016,2.938,3.799,5.051,7.083,5.051s6.067-2.111,7.083-5.051
		C43.932,97.887,46.715,100,50,100s6.068-2.113,7.083-5.053C58.1,97.885,60.882,100,64.166,100c3.285,0,6.068-2.115,7.084-5.055
		c1.016,2.939,3.799,5.055,7.084,5.055c3.284,0,6.066-2.113,7.083-5.053C86.434,97.887,89.216,100,92.5,100
		c4.143,0,7.5-3.357,7.5-7.5c0-3.285-2.113-6.066-5.052-7.084C97.887,84.4,100,81.617,100,78.334c0-3.285-2.113-6.068-5.055-7.084
		c2.939-1.016,5.055-3.799,5.055-7.084s-2.113-6.066-5.052-7.084C97.887,56.066,100,53.283,100,50c0-3.284-2.113-6.068-5.052-7.083
		c2.938-1.018,5.052-3.8,5.052-7.084s-2.113-6.067-5.052-7.083C97.887,27.733,100,24.951,100,21.667z M90.052,85.416
		c-2.17,0.75-3.885,2.465-4.635,4.635C84.4,87.113,81.618,85,78.334,85c-3.285,0-6.068,2.113-7.084,5.055
		C70.234,87.113,67.451,85,64.166,85c-3.284,0-6.066,2.113-7.083,5.051C56.066,87.113,53.284,85,50,85s-6.068,2.113-7.083,5.051
		C41.9,87.113,39.117,85,35.833,85s-6.067,2.113-7.083,5.051C27.734,87.113,24.951,85,21.667,85s-6.068,2.113-7.083,5.051
		c-0.75-2.17-2.465-3.885-4.635-4.635C12.887,84.4,15,81.617,15,78.334c0-3.285-2.115-6.068-5.055-7.084
		C12.886,70.234,15,67.451,15,64.166s-2.114-6.066-5.052-7.084C12.887,56.066,15,53.283,15,50c0-3.284-2.113-6.068-5.052-7.083
		c2.939-1.018,5.052-3.8,5.052-7.084s-2.113-6.067-5.051-7.083C12.887,27.733,15,24.951,15,21.667s-2.114-6.068-5.053-7.083
		c2.171-0.75,3.886-2.465,4.636-4.636c1.016,2.938,3.8,5.052,7.084,5.052s6.067-2.113,7.083-5.051
		C29.766,12.887,32.549,15,35.833,15s6.067-2.113,7.083-5.052C43.932,12.887,46.715,15,50,15s6.068-2.113,7.083-5.051
		C58.1,12.887,60.882,15,64.166,15c3.285,0,6.068-2.114,7.084-5.055C72.266,12.886,75.049,15,78.334,15
		c3.284,0,6.066-2.113,7.083-5.051c0.75,2.17,2.465,3.885,4.636,4.635C87.113,15.599,85,18.383,85,21.667s2.113,6.066,5.052,7.083
		C87.113,29.766,85,32.549,85,35.833s2.113,6.066,5.052,7.083C87.113,43.932,85,46.715,85,50s2.113,6.068,5.052,7.082
		C87.113,58.1,85,60.881,85,64.166s2.113,6.068,5.055,7.084C87.113,72.266,85,75.049,85,78.334C85,81.617,87.113,84.4,90.052,85.416
		z"/>
</g>
</g></g><g transform="translate(0,396) scale(1.2475247524752, 1.2475247524752)"><g transform="" style="fill: rgb(0, 0, 0);">
<g>
	<path style="fill:none;" d="M90.055,71.25C87.113,70.234,85,67.451,85,64.166s2.113-6.066,5.052-7.084
		C87.113,56.066,85,53.283,85,50c0-3.284,2.113-6.068,5.052-7.083C87.113,41.899,85,39.117,85,35.833s2.113-6.067,5.052-7.083
		C87.113,27.733,85,24.951,85,21.667s2.113-6.068,5.053-7.083c-2.171-0.75-3.886-2.464-4.636-4.635C84.4,12.887,81.618,15,78.334,15
		c-3.285,0-6.068-2.114-7.084-5.055C70.234,12.886,67.451,15,64.166,15c-3.284,0-6.066-2.113-7.083-5.051
		C56.066,12.887,53.284,15,50,15s-6.068-2.113-7.083-5.052C41.9,12.887,39.117,15,35.833,15s-6.067-2.113-7.083-5.051
		C27.734,12.887,24.951,15,21.667,15s-6.068-2.114-7.083-5.054c-0.75,2.172-2.465,3.887-4.636,4.637
		c2.938,1.016,5.052,3.8,5.052,7.084s-2.114,6.066-5.052,7.083C12.887,29.766,15,32.549,15,35.833s-2.113,6.066-5.052,7.083
		C12.887,43.932,15,46.715,15,50s-2.113,6.068-5.051,7.082C12.887,58.1,15,60.881,15,64.166s-2.115,6.068-5.055,7.084
		C12.886,72.266,15,75.049,15,78.334c0,3.283-2.114,6.066-5.052,7.082c2.17,0.75,3.885,2.465,4.635,4.635
		c1.016-2.938,3.8-5.051,7.084-5.051s6.067,2.113,7.083,5.051C29.766,87.113,32.549,85,35.833,85s6.067,2.113,7.083,5.051
		C43.932,87.113,46.715,85,50,85s6.068,2.113,7.083,5.051C58.1,87.113,60.882,85,64.166,85c3.285,0,6.068,2.113,7.084,5.055
		C72.266,87.113,75.049,85,78.334,85c3.284,0,6.066,2.113,7.083,5.051c0.75-2.17,2.465-3.885,4.635-4.635
		C87.113,84.4,85,81.617,85,78.334C85,75.049,87.113,72.266,90.055,71.25z"/>
	<path d="M100,21.667c0-3.284-2.113-6.068-5.053-7.083C97.887,13.567,100,10.784,100,7.5c0-4.144-3.357-7.5-7.5-7.5
		c-3.284,0-6.066,2.112-7.083,5.051C84.4,2.112,81.618,0,78.334,0c-3.285,0-6.068,2.114-7.084,5.054C70.234,2.114,67.451,0,64.166,0
		c-3.284,0-6.066,2.112-7.083,5.051C56.066,2.112,53.284,0,50,0s-6.068,2.112-7.083,5.052C41.9,2.112,39.117,0,35.833,0
		s-6.067,2.112-7.083,5.051C27.734,2.112,24.951,0,21.667,0s-6.068,2.114-7.083,5.053C13.568,2.114,10.784,0,7.5,0
		C3.357,0,0,3.356,0,7.5c0,3.284,2.114,6.067,5.053,7.083C2.114,15.599,0,18.383,0,21.667s2.113,6.066,5.051,7.083
		C2.113,29.766,0,32.549,0,35.833s2.113,6.066,5.052,7.083C2.113,43.932,0,46.715,0,50s2.113,6.068,5.051,7.082
		C2.113,58.1,0,60.881,0,64.166s2.114,6.068,5.054,7.084C2.114,72.266,0,75.049,0,78.334c0,3.283,2.113,6.066,5.051,7.082
		C2.113,86.434,0,89.215,0,92.5c0,4.143,3.357,7.5,7.5,7.5c0.518,0,1.023-0.053,1.512-0.152c2.608-0.533,4.716-2.426,5.572-4.898
		c1.015,2.938,3.799,5.051,7.083,5.051s6.067-2.111,7.083-5.051c1.016,2.938,3.799,5.051,7.083,5.051s6.067-2.111,7.083-5.051
		C43.932,97.887,46.715,100,50,100s6.068-2.113,7.083-5.053C58.1,97.885,60.882,100,64.166,100c3.285,0,6.068-2.115,7.084-5.055
		c1.016,2.939,3.799,5.055,7.084,5.055c3.284,0,6.066-2.113,7.083-5.053C86.434,97.887,89.216,100,92.5,100
		c4.143,0,7.5-3.357,7.5-7.5c0-3.285-2.113-6.066-5.052-7.084C97.887,84.4,100,81.617,100,78.334c0-3.285-2.113-6.068-5.055-7.084
		c2.939-1.016,5.055-3.799,5.055-7.084s-2.113-6.066-5.052-7.084C97.887,56.066,100,53.283,100,50c0-3.284-2.113-6.068-5.052-7.083
		c2.938-1.018,5.052-3.8,5.052-7.084s-2.113-6.067-5.052-7.083C97.887,27.733,100,24.951,100,21.667z M90.052,85.416
		c-2.17,0.75-3.885,2.465-4.635,4.635C84.4,87.113,81.618,85,78.334,85c-3.285,0-6.068,2.113-7.084,5.055
		C70.234,87.113,67.451,85,64.166,85c-3.284,0-6.066,2.113-7.083,5.051C56.066,87.113,53.284,85,50,85s-6.068,2.113-7.083,5.051
		C41.9,87.113,39.117,85,35.833,85s-6.067,2.113-7.083,5.051C27.734,87.113,24.951,85,21.667,85s-6.068,2.113-7.083,5.051
		c-0.75-2.17-2.465-3.885-4.635-4.635C12.887,84.4,15,81.617,15,78.334c0-3.285-2.115-6.068-5.055-7.084
		C12.886,70.234,15,67.451,15,64.166s-2.114-6.066-5.052-7.084C12.887,56.066,15,53.283,15,50c0-3.284-2.113-6.068-5.052-7.083
		c2.939-1.018,5.052-3.8,5.052-7.084s-2.113-6.067-5.051-7.083C12.887,27.733,15,24.951,15,21.667s-2.114-6.068-5.053-7.083
		c2.171-0.75,3.886-2.465,4.636-4.636c1.016,2.938,3.8,5.052,7.084,5.052s6.067-2.113,7.083-5.051
		C29.766,12.887,32.549,15,35.833,15s6.067-2.113,7.083-5.052C43.932,12.887,46.715,15,50,15s6.068-2.113,7.083-5.051
		C58.1,12.887,60.882,15,64.166,15c3.285,0,6.068-2.114,7.084-5.055C72.266,12.886,75.049,15,78.334,15
		c3.284,0,6.066-2.113,7.083-5.051c0.75,2.17,2.465,3.885,4.636,4.635C87.113,15.599,85,18.383,85,21.667s2.113,6.066,5.052,7.083
		C87.113,29.766,85,32.549,85,35.833s2.113,6.066,5.052,7.083C87.113,43.932,85,46.715,85,50s2.113,6.068,5.052,7.082
		C87.113,58.1,85,60.881,85,64.166s2.113,6.068,5.055,7.084C87.113,72.266,85,75.049,85,78.334C85,81.617,87.113,84.4,90.052,85.416
		z"/>
</g>
</g></g><g transform="translate(36,36) scale(0.54, 0.54)"><g transform="" style="fill: rgb(0, 0, 0);">
<g>
	<circle cx="17.33" cy="17.33" r="16.83"/>
	<circle cx="50" cy="17.33" r="16.83"/>
	<circle cx="82.67" cy="17.33" r="16.83"/>
	<circle cx="17.33" cy="82.67" r="16.83"/>
	<circle cx="50" cy="82.67" r="16.83"/>
	<circle cx="82.67" cy="82.67" r="16.83"/>
	<circle cx="17.33" cy="50" r="16.83"/>
	<circle cx="50" cy="50" r="16.83"/>
	<circle cx="82.67" cy="50" r="16.83"/>
</g>
</g></g><g transform="translate(432,36) scale(0.54, 0.54)"><g transform="" style="fill: rgb(0, 0, 0);">
<g>
	<circle cx="17.33" cy="17.33" r="16.83"/>
	<circle cx="50" cy="17.33" r="16.83"/>
	<circle cx="82.67" cy="17.33" r="16.83"/>
	<circle cx="17.33" cy="82.67" r="16.83"/>
	<circle cx="50" cy="82.67" r="16.83"/>
	<circle cx="82.67" cy="82.67" r="16.83"/>
	<circle cx="17.33" cy="50" r="16.83"/>
	<circle cx="50" cy="50" r="16.83"/>
	<circle cx="82.67" cy="50" r="16.83"/>
</g>
</g></g><g transform="translate(36,432) scale(0.54, 0.54)"><g transform="" style="fill: rgb(0, 0, 0);">
<g>
	<circle cx="17.33" cy="17.33" r="16.83"/>
	<circle cx="50" cy="17.33" r="16.83"/>
	<circle cx="82.67" cy="17.33" r="16.83"/>
	<circle cx="17.33" cy="82.67" r="16.83"/>
	<circle cx="50" cy="82.67" r="16.83"/>
	<circle cx="82.67" cy="82.67" r="16.83"/>
	<circle cx="17.33" cy="50" r="16.83"/>
	<circle cx="50" cy="50" r="16.83"/>
	<circle cx="82.67" cy="50" r="16.83"/>
</g>
</g></g></g></svg>